Coordinates
nRows=126
nColumns=2
inDegrees=yes
endheader
time	ankle_angle_r	
2.3619	  9.523263	
2.43347	  9.626309	
2.50504	  9.613037	
2.57661	  9.674072	
2.64819	  9.628296	
2.71976	  9.622659	
2.79133	  9.683278	
2.8629	  9.667603	
2.93448	  9.604664	
3.00605	  9.567261	
3.07762	  9.647413	
3.14919	  9.560135	
3.22077	  9.567261	
3.29234	  9.684849	
3.36391	  9.628296	
3.43548	  9.602677	
3.50706	  9.658813	
3.57863	  9.674072	
3.6502	  9.628296	
3.72177	  9.576789	
3.79335	  9.674072	
3.86492	  9.628296	
3.93649	  9.630845	
4.00806	  9.573824	
4.07964	  9.606266	
4.15121	  9.644855	
4.22278	  9.582520	
4.29435	  9.613037	
4.36593	  9.628296	
4.4375	  9.643555	
4.50907	  9.589759	
4.58065	  9.604810	
4.65222	  9.635119	
4.72379	  9.599806	
4.79536	  9.606629	
4.86694	  9.597778	
4.93851	  9.646831	
5.01008	  9.576735	
5.08165	  9.647662	
5.15323	  9.704590	
5.2248	  9.699430	
5.29637	  9.669121	
5.36794	  9.643555	
5.43952	  9.780884	
5.51109	  9.761297	
5.58266	  9.647675	
5.65423	  9.685420	
5.72581	  9.704590	
5.79738	  9.682341	
5.86895	  9.594491	
5.94052	  9.652655	
6.0121	  9.610166	
6.08367	  9.582520	
6.15524	  9.552002	
6.22681	  9.536743	
6.29839	  9.639477	
6.36996	  9.534912	
6.44153	  9.535120	
6.5131	  9.585350	
6.58468	  9.580106	
6.65625	  9.551003	
6.72782	  9.506226	
6.7994	  9.583686	
6.87097	  9.567261	
6.94254	  9.536743	
7.01411	  9.658772	
7.08569	  9.612788	
7.15726	  9.599607	
7.22883	  9.551337	
7.3004	  9.613037	
7.37198	  9.629377	
7.44355	  9.658813	
7.51512	  9.552002	
7.58669	  9.579109	
7.65827	  9.601604	
7.72984	  9.552002	
7.80141	  9.532084	
7.87298	  9.592704	
7.94456	  9.532466	
8.01613	  9.552002	
8.0877	  9.518323	
8.15927	  9.589258	
8.23085	  9.559156	
8.30242	  9.536743	
8.37399	  9.578526	
8.44556	  9.563059	
8.51714	  9.556412	
8.58871	  9.558025	
8.66028	  9.598560	
8.73185	  9.628296	
8.80343	  9.587761	
8.875	  9.632655	
8.94657	  9.613037	
9.01815	  9.689331	
9.08972	  9.591704	
9.16129	  9.622014	
9.23286	  9.689331	
9.30444	  9.626432	
9.37601	  9.657366	
9.44758	  9.591696	
9.51915	  9.658813	
9.59073	  9.567061	
9.6623	  9.567261	
9.73387	  9.606357	
9.80544	  9.598827	
9.87702	  9.658813	
9.94859	  9.575830	
10.0202	  9.597778	
10.0917	  9.604052	
10.1633	  9.524613	
10.2349	  9.576663	
10.3065	  9.571222	
10.378	  9.597778	
10.4496	  9.516691	
10.5212	  9.562052	
10.5927	  9.587337	
10.6643	  9.562652	
10.7359	  9.632696	
10.8075	  9.567261	
10.879	  9.593794	
10.9506	  9.525261	
11.0222	  9.567261	
11.0937	  9.609676	
11.1653	  9.524637	
11.2369	  9.585464	
11.3085	  9.595042	
